<svg width="41" height="40" viewBox="0 0 41 40" fill="none" xmlns="http://www.w3.org/2000/svg">
<path fill-rule="evenodd" clip-rule="evenodd" d="M36.1667 0H4.83333C2.4401 0 0.5 1.9401 0.5 4.33333V35.6667C0.5 38.0599 2.4401 40 4.83333 40H36.1667C38.5598 40 40.5 38.0599 40.5 35.6667V4.33333C40.5 1.9401 38.5598 0 36.1667 0ZM11.1666 13.3333H14.5V26.6667H12.1667V15.6667H9.83333L11.1666 13.3333ZM27.8333 13.3333H31.1667V26.6667H28.8333V15.6667H26.5L27.8333 13.3333ZM19.5 20L21.8333 15.6667H16.5L17.8333 13.3333H25.5L24.1666 15.6667L22.871 18.0729C24.4223 18.7831 25.5 20.349 25.5 22.1667C25.5 24.6519 23.4853 26.6667 21 26.6667C18.5147 26.6667 16.5 24.6519 16.5 22.1667H18.8333C18.8333 23.3633 19.8034 24.3333 21 24.3333C22.1966 24.3333 23.1667 23.3633 23.1667 22.1667C23.1667 20.9701 22.1966 20 21 20H19.5Z" fill="#FF333A"/>
</svg>
